<?xml version="1.0" standalone="no"?>
<!DOCTYPE svg PUBLIC "-//W3C//DTD SVG 20010904//EN"
 "http://www.w3.org/TR/2001/REC-SVG-20010904/DTD/svg10.dtd">
<svg version="1.0" xmlns="http://www.w3.org/2000/svg"
 width="732.000000pt" height="732.000000pt" viewBox="0 0 732.000000 732.000000"
 preserveAspectRatio="xMidYMid meet">
<metadata>
Created by potrace 1.14, written by Peter Selinger 2001-2017
</metadata>
<g transform="translate(0.000000,732.000000) scale(0.100000,-0.100000)"
fill="#000000" stroke="none">
<path d="M3463 6324 c-560 -81 -1006 -449 -1188 -979 -29 -83 -86 -354 -78
-367 2 -5 56 -8 119 -8 63 0 114 3 115 8 18 209 103 439 222 607 103 147 313
326 461 394 202 93 337 123 549 123 183 -1 279 -19 452 -89 161 -65 263 -132
388 -252 213 -205 324 -431 372 -753 l6 -38 115 0 116 0 -7 53 c-52 413 -234
748 -540 994 -206 164 -430 261 -709 303 -145 23 -259 24 -393 4z"/>
<path d="M2972 4883 l3 -698 109 -3 c60 -1 113 1 118 6 5 5 10 209 11 463 1
291 6 456 12 458 6 3 28 -22 50 -54 112 -165 246 -361 253 -370 4 -5 11 -18
15 -28 4 -10 11 -15 17 -12 6 4 10 84 10 211 l0 205 -91 132 c-49 73 -129 189
-176 260 l-86 127 -124 0 -123 0 2 -697z"/>
<path d="M4047 5503 c-93 -133 -217 -315 -258 -378 l-39 -60 -2 -207 c-1 -114
1 -210 4 -213 3 -3 65 84 138 192 144 215 190 277 197 269 3 -2 4 -206 4 -453
-1 -246 3 -454 7 -461 6 -9 38 -12 123 -10 l114 3 0 695 0 695 -117 3 -117 3
-54 -78z"/>
<path d="M2196 4791 c-3 -5 1 -42 9 -82 9 -41 20 -96 26 -124 62 -303 228
-589 460 -792 198 -172 423 -284 684 -339 44 -9 98 -20 120 -25 22 -4 92 -8
156 -9 225 0 516 81 735 206 217 123 420 330 539 548 47 87 101 209 116 264
39 140 58 234 61 302 l3 55 -112 3 -112 3 -6 -48 c-61 -498 -391 -894 -867
-1042 -128 -40 -253 -55 -413 -48 -183 8 -294 35 -464 113 -246 113 -476 345
-589 595 -21 46 -44 104 -51 129 -7 25 -17 54 -21 66 -4 11 -16 68 -25 127
l-18 107 -113 0 c-62 0 -115 -4 -118 -9z"/>
<path d="M2925 3269 c-100 -23 -184 -89 -233 -184 -24 -45 -27 -60 -26 -155 0
-124 17 -172 89 -249 121 -129 311 -133 442 -8 62 58 90 112 104 196 19 118
-14 226 -94 309 -50 51 -95 76 -165 91 -60 12 -62 12 -117 0z m128 -38 c82
-32 134 -128 144 -266 14 -214 -65 -345 -210 -345 -146 0 -217 103 -217 318 0
194 73 300 207 302 28 0 63 -4 76 -9z"/>
<path d="M4526 3197 c-16 -39 -39 -94 -51 -122 -13 -27 -33 -72 -44 -99 -12
-27 -31 -69 -41 -95 -18 -47 -56 -133 -92 -209 -13 -27 -28 -44 -44 -48 -51
-13 -20 -24 67 -24 57 0 88 4 84 10 -3 6 -15 10 -25 10 -11 0 -24 9 -30 20 -9
16 -4 36 23 98 l33 77 131 3 131 3 26 -63 c36 -84 38 -120 9 -133 -44 -19 -22
-25 87 -25 100 0 140 10 92 22 -34 9 -68 70 -147 263 -42 105 -85 208 -95 230
-9 22 -25 60 -36 85 -19 48 -33 70 -43 70 -3 0 -19 -33 -35 -73z m66 -192 c22
-55 44 -106 50 -112 6 -7 8 -20 4 -28 -7 -20 -216 -23 -216 -2 0 7 20 57 43
112 24 55 47 108 50 118 12 33 28 13 69 -88z"/>
<path d="M1640 3250 c0 -5 9 -10 20 -10 10 0 28 -10 40 -22 19 -21 20 -34 20
-291 l0 -269 -31 -29 -31 -29 78 0 79 0 -27 23 -27 22 -3 243 c-2 133 0 242 3
242 12 0 27 -25 47 -75 19 -46 39 -91 142 -310 20 -44 40 -90 44 -102 4 -11
13 -27 21 -33 12 -10 21 3 56 76 58 126 164 362 183 407 8 20 21 37 28 37 10
0 12 -46 10 -227 -1 -126 -4 -237 -7 -249 -2 -11 -17 -27 -32 -35 -26 -13 -22
-14 71 -17 54 -1 101 0 104 2 3 3 -7 15 -21 27 l-27 20 0 273 c0 296 4 316 56
316 13 0 24 4 24 8 0 4 -38 9 -84 11 l-84 2 -41 -86 c-23 -48 -41 -89 -41 -90
0 -2 -18 -43 -41 -92 -72 -153 -89 -191 -99 -217 -5 -14 -14 -26 -19 -26 -8 0
-61 99 -61 114 0 2 -21 48 -46 102 -26 55 -66 142 -90 194 l-43 95 -86 3 c-54
2 -85 -1 -85 -8z"/>
<path d="M3556 3243 c-9 -31 -10 -128 -2 -128 4 0 14 18 22 40 23 68 51 78
214 73 86 -2 105 -6 104 -18 -1 -8 -61 -100 -134 -205 -222 -315 -270 -386
-270 -396 0 -15 530 -12 534 4 18 63 32 147 25 147 -5 0 -18 -19 -30 -42 -12
-23 -26 -47 -33 -53 -26 -26 -84 -35 -222 -35 -166 0 -167 1 -106 79 20 27 57
78 81 113 24 34 99 143 167 241 68 98 124 182 124 187 0 6 -93 10 -234 10
-215 0 -235 -1 -240 -17z"/>
<path d="M5111 3251 c-11 -7 -9 -10 10 -13 44 -6 49 -34 49 -308 0 -140 -3
-264 -6 -276 -3 -12 -20 -28 -37 -37 -31 -15 -28 -16 88 -16 110 1 117 2 89
14 -17 8 -34 21 -37 29 -3 8 -7 68 -8 132 -1 120 3 133 42 134 30 0 48 -22
209 -247 l45 -62 83 -1 c48 0 82 4 82 10 0 6 -10 10 -21 10 -43 0 -90 44 -179
166 -49 69 -90 127 -90 128 0 2 19 11 43 21 141 56 158 217 30 292 -47 27 -53
28 -213 31 -93 2 -171 -1 -179 -7z m299 -41 c49 -25 70 -64 70 -129 0 -55 -28
-99 -81 -126 -31 -17 -136 -20 -141 -5 -1 5 -2 66 0 135 3 119 4 127 25 135
37 15 86 11 127 -10z"/>
<path d="M2131 2507 c-41 -20 -62 -60 -68 -123 -7 -74 13 -126 59 -154 37 -24
92 -21 134 6 21 14 24 24 24 75 l0 59 -43 0 c-24 0 -46 -3 -50 -6 -12 -12 6
-34 29 -34 19 0 24 -5 24 -24 0 -53 -77 -68 -117 -22 -34 40 -33 123 3 165 32
38 59 39 95 5 33 -32 67 -27 49 6 -14 26 -68 60 -95 60 -11 0 -31 -6 -44 -13z"/>
<path d="M3608 2504 c-40 -21 -59 -65 -59 -139 -1 -83 21 -124 77 -144 35 -12
44 -12 76 3 48 23 73 74 72 146 -1 70 -25 117 -69 136 -43 18 -63 17 -97 -2z
m87 -40 c45 -30 53 -148 12 -188 -24 -25 -82 -21 -100 7 -36 55 -28 151 16
182 27 19 42 19 72 -1z"/>
<path d="M2820 2365 c0 -138 1 -145 20 -145 18 0 20 7 20 59 0 33 5 63 10 66
18 11 57 -23 85 -74 25 -46 58 -70 70 -51 4 7 -26 67 -57 112 -10 14 -7 21 15
39 24 18 28 27 25 67 -4 58 -26 72 -120 72 l-68 0 0 -145z m145 65 c0 -28 -5
-36 -26 -44 -14 -5 -38 -6 -53 -2 -21 5 -26 12 -26 40 0 43 6 47 60 44 44 -3
45 -4 45 -38z"/>
<path d="M4314 2496 c-3 -8 -4 -65 -2 -125 3 -99 5 -113 26 -133 32 -32 102
-32 134 0 21 21 23 31 23 145 0 108 -2 122 -17 125 -16 3 -18 -7 -18 -107 0
-99 -2 -113 -21 -132 -14 -14 -27 -18 -42 -13 -43 13 -46 22 -49 137 -2 77 -7
112 -15 115 -7 2 -16 -3 -19 -12z"/>
<path d="M5047 2503 c-4 -3 -7 -69 -7 -145 0 -131 1 -138 20 -138 17 0 20 7
20 48 0 59 12 72 66 72 53 0 74 25 74 87 0 64 -24 83 -103 83 -35 0 -67 -3
-70 -7z m128 -57 c20 -29 11 -51 -25 -66 -46 -19 -70 -5 -70 39 0 46 4 51 46
51 24 0 38 -7 49 -24z"/>
<path d="M3950 2110 c-18 -18 -20 -28 -14 -83 10 -93 26 -101 37 -17 3 19 8
52 11 72 7 45 -6 56 -34 28z"/>
<path d="M2990 2105 c0 -8 5 -15 10 -15 6 0 10 7 10 15 0 8 -4 15 -10 15 -5 0
-10 -7 -10 -15z"/>
<path d="M3647 2114 c-10 -10 -8 -136 2 -152 17 -28 32 14 29 84 -3 62 -14 85
-31 68z"/>
<path d="M3790 2104 c0 -9 5 -14 12 -12 18 6 21 28 4 28 -9 0 -16 -7 -16 -16z"/>
<path d="M4102 2109 c2 -6 8 -10 13 -10 5 0 11 4 13 10 2 6 -4 11 -13 11 -9 0
-15 -5 -13 -11z"/>
<path d="M4777 2114 c-4 -4 -7 -40 -7 -81 0 -67 2 -73 20 -73 19 0 21 5 18 77
-3 70 -13 95 -31 77z"/>
<path d="M5492 2108 c6 -18 28 -21 28 -4 0 9 -7 16 -16 16 -9 0 -14 -5 -12
-12z"/>
<path d="M1999 2073 c-31 -22 -39 -33 -39 -60 0 -28 37 -63 66 -63 25 0 64 43
64 70 0 15 -29 48 -56 63 -6 3 -22 -1 -35 -10z m50 -42 c7 -13 6 -24 -5 -40
-15 -21 -17 -21 -35 -5 -23 21 -24 32 -3 55 18 20 29 18 43 -10z"/>
<path d="M2433 2073 c-31 -21 -29 -37 9 -67 34 -27 34 -46 -1 -25 -26 17 -42
2 -17 -17 27 -20 60 -18 80 5 17 18 17 20 -2 38 -10 10 -27 23 -38 29 -10 7
-16 15 -11 20 4 4 13 2 19 -4 16 -16 28 -15 28 3 0 8 -9 19 -19 25 -24 12 -21
13 -48 -7z"/>
<path d="M2793 2073 c-32 -22 -29 -49 7 -65 31 -13 41 -38 15 -38 -8 0 -15 5
-15 10 0 6 -7 10 -15 10 -25 0 -17 -29 11 -36 57 -15 104 45 51 65 -13 5 -29
16 -36 25 -11 14 -11 16 2 16 9 0 19 -4 22 -10 8 -14 25 -13 25 1 0 11 -29 39
-40 38 -3 0 -15 -7 -27 -16z"/>
<path d="M4255 2058 c-29 -34 -28 -72 3 -96 26 -20 66 -11 70 16 4 26 -6 29
-24 5 -7 -10 -15 -16 -17 -13 -6 5 -10 45 -8 73 2 27 21 20 21 -8 0 -18 5 -25
19 -25 33 0 35 20 5 51 -15 16 -31 29 -35 29 -4 0 -19 -14 -34 -32z"/>
<path d="M4941 2074 c-26 -19 -18 -39 9 -24 26 14 25 15 27 -35 1 -34 -2 -45
-13 -45 -11 0 -13 6 -9 19 8 25 -7 34 -30 17 -40 -29 14 -67 67 -47 23 9 26
14 23 53 -3 57 -2 53 -29 66 -18 8 -28 7 -45 -4z"/>
<path d="M1751 2063 c0 -26 43 -108 54 -107 12 1 54 83 55 107 0 29 -20 19
-36 -18 -15 -36 -34 -39 -34 -6 0 18 -18 41 -32 41 -4 0 -8 -8 -7 -17z"/>
<path d="M2203 2073 c-8 -3 -13 -22 -13 -47 0 -57 24 -80 73 -71 33 7 35 9 39
52 3 47 -15 93 -26 63 -3 -8 -7 -31 -8 -50 -2 -24 -9 -36 -20 -38 -15 -3 -18
4 -18 42 0 46 -6 57 -27 49z"/>
<path d="M3133 2064 c-8 -21 2 -109 12 -109 6 0 11 18 13 40 6 75 47 82 47 8
0 -20 6 -38 13 -40 8 -3 12 8 12 36 0 29 5 44 16 48 18 7 36 -15 29 -35 -9
-24 6 -61 21 -55 16 6 19 79 4 103 -11 18 -160 22 -167 4z"/>
<path d="M3448 2073 c-28 -4 -28 -5 -28 -84 0 -61 3 -79 14 -79 7 0 16 9 19
20 3 12 14 20 25 20 30 0 52 27 52 65 0 34 -22 66 -43 64 -7 -1 -24 -4 -39 -6z
m52 -58 c0 -30 -22 -49 -38 -33 -27 27 -3 90 25 67 7 -7 13 -22 13 -34z"/>
<path d="M4473 2073 c-21 -4 -23 -10 -23 -59 0 -47 3 -55 18 -52 12 2 17 13
18 37 1 20 8 37 18 43 9 5 16 16 16 23 0 15 -6 16 -47 8z"/>
<path d="M5270 2066 c0 -30 42 -107 56 -104 22 4 60 96 47 109 -8 8 -15 3 -24
-17 -19 -38 -33 -39 -46 -4 -11 31 -33 41 -33 16z"/>
<path d="M5646 2064 c-9 -8 -16 -31 -16 -49 0 -39 22 -65 55 -65 28 0 52 34
34 46 -7 4 -16 -1 -21 -10 -16 -29 -28 -17 -28 29 0 49 14 60 24 20 4 -16 13
-25 26 -25 29 0 25 34 -5 54 -31 20 -49 20 -69 0z"/>
<path d="M2988 2058 c-6 -17 -2 -98 6 -105 15 -15 27 18 24 62 -3 46 -20 71
-30 43z"/>
<path d="M3792 2015 c2 -30 8 -55 13 -55 6 0 11 25 13 55 2 45 0 55 -13 55
-13 0 -15 -10 -13 -55z"/>
<path d="M4100 2015 c0 -42 3 -55 15 -55 12 0 15 13 15 55 0 42 -3 55 -15 55
-12 0 -15 -13 -15 -55z"/>
<path d="M5490 2015 c0 -42 3 -55 15 -55 12 0 15 13 15 55 0 42 -3 55 -15 55
-12 0 -15 -13 -15 -55z"/>
</g>
</svg>
